# xmcd
# 
# Track frame offsets:
#     150
#     16303
#     32488
#     47943
#     62556
#     78632
#     93672
#     108821
#     126250
#     142645
#     161605
#     173306
#     192474
#     209751
#     228294
#     245572
#     264708
#     285318
# 
# Disc length: 4057
# 
# Revision: 1
# Processed by: cddbd v1.5.2PL0 Copyright (c) Steve Scherf et al.
# Submitted via: fre:ac v1.0.31
# 
DISCID=f30fd712
DTITLE=The Nitty Gritty Dirt Band - Anthology Disc 2
DYEAR=2017
DGENRE=Country
TTITLE0=An American Dream
TTITLE1=Make a Little Magic
TTITLE2=Shot Full of Love
TTITLE3=Dance Little Jean
TTITLE4=Colorado Christmas
TTITLE5=Long Hard Road (The Sharecropper's Dream)
TTITLE6=Fishing in the Dark
TTITLE7=Workin' Man (Nowhere to Go)
TTITLE8=You Ain't Going Nowhere
TTITLE9=The Valley Road
TTITLE10=When it's Gone
TTITLE11=Waitin' On a Dark Eyed Gal
TTITLE12=Bless the Broken Road (Remix)
TTITLE13=Catfish John
TTITLE14=The Lowlands
TTITLE15=Tears in the Holston River
TTITLE16=Midnight at Woody Creek
TTITLE17=The Resurrection
EXTD=
EXTT0=
EXTT1=
EXTT2=
EXTT3=
EXTT4=
EXTT5=
EXTT6=
EXTT7=
EXTT8=
EXTT9=
EXTT10=
EXTT11=
EXTT12=
EXTT13=
EXTT14=
EXTT15=
EXTT16=
EXTT17=
PLAYORDER=
